:version 1.10
:name ASF
:units
  mass 1
  length 1
  angle deg
:documentation
  ASF file generated by Kaydara
:root
  axis xyz
  order  tx ty tz rx ry rz
  position 0 0 0
  orientation 0 0 0
:bonedata
  begin
    id 1
    name RightUpLegDummy
    direction -1 2.30186e-007 8.31532e-007
    length 4.46685
    axis 0 0 0 xyz
  end
  begin
    id 2
    name RightUpLeg
    direction -2.30187e-007 -1 1.24343e-010
    length 16.4045
    axis -3.49089 -0.000906625 0.000286804 xyz
    dof rx ry rz
  end
  begin
    id 3
    name RightLeg
    direction -2.30181e-007 -1 -4.17157e-009
    length 17.5097
    axis 3.68512 0.0193738 -0.131023 xyz
    dof rx ry rz
  end
  begin
    id 4
    name RightFoot
    direction 8.31421e-007 -4.51202e-011 1
    length 6.49508
    axis 4.81691e-005 -0.120479 -0.188788 xyz
    dof rx ry rz
  end
  begin
    id 5
    name RightToes
    direction 0.00124746 -0.014064 0.9999
    length 3.85082
    axis 0.000481921 0.542163 -0.142578 xyz
    dof rx ry rz
  end
  begin
    id 6
    name SpineDummy
    direction 0.0717043 0.9409 -0.331007
    length 10.0032
    axis 0 0 0 xyz
  end
  begin
    id 7
    name Spine
    direction 2.30186e-007 1 4.58806e-011
    length 9.84055
    axis -0.001389 0.000121418 2.40972e-006 xyz
    dof rx ry rz
  end
  begin
    id 8
    name Spine1
    direction 0 0 0
    length 0
    axis -0.001389 0.000121451 1.30017e-006 xyz
    dof rx ry rz
  end
  begin
    id 9
    name HEadDummy
    direction -0.00347485 0.950688 -0.310128
    length 8.00997
    axis -0.001389 0.000121451 1.30017e-006 xyz
  end
  begin
    id 10
    name HEad
    direction -0.0222688 0.980941 0.193023
    length 5.12695
    axis -0.001389 0.000121451 1.30017e-006 xyz
    dof rx ry rz
  end
  begin
    id 11
    name LeftShoulder1Dummy
    direction 0.988871 0.146793 -0.0242004
    length 3.5792
    axis -0.001389 0.000121451 1.30017e-006 xyz
  end
  begin
    id 12
    name LeftShoulder1
    direction 0.993832 0.108932 0.020779
    length 4.16823
    axis -0.001389 0.000121451 1.30017e-006 xyz
    dof rx ry rz
  end
  begin
    id 13
    name LeftArm
    direction 1 3.44807e-006 -8.31404e-007
    length 9.91437
    axis -23.1894 0.134784 0.967509 xyz
    dof rx ry rz
  end
  begin
    id 14
    name LeftForeArm
    direction 1 3.44842e-006 -8.31581e-007
    length 9.08575
    axis -9.91835 -0.06569 -0.177793 xyz
    dof rx ry rz
  end
  begin
    id 15
    name LeftHand
    direction 0.992938 -0.0411636 0.11126
    length 5.32135
    axis -0.00960232 -0.00340091 0.185173 xyz
    dof rx ry rz
  end
  begin
    id 16
    name RightShoulderDummy
    direction -0.988871 0.146793 -0.0241962
    length 3.5792
    axis -0.001389 0.000121451 1.30017e-006 xyz
  end
  begin
    id 17
    name RightShoulder
    direction -0.993832 0.108933 0.0207785
    length 4.16823
    axis 0.215806 0.000203643 -0.0068026 xyz
    dof rx ry rz
  end
  begin
    id 18
    name RightArm
    direction -1 3.90912e-006 8.31284e-007
    length 9.91437
    axis -23.2009 -0.134239 -0.964101 xyz
    dof rx ry rz
  end
  begin
    id 19
    name RightForeArm
    direction -1 3.90882e-006 8.31502e-007
    length 9.08575
    axis -9.92322 0.0658061 0.178867 xyz
    dof rx ry rz
  end
  begin
    id 20
    name RightHand
    direction -0.992843 -0.0414603 0.112003
    length 5.28593
    axis -0.00960638 0.00330671 -0.185228 xyz
    dof rx ry rz
  end
  begin
    id 21
    name LeftUpLegDummy
    direction 1 -2.30186e-007 -8.31532e-007
    length 4.46685
    axis 0 0 0 xyz
  end
  begin
    id 22
    name LeftUpLeg
    direction -2.30187e-007 -1 6.00931e-010
    length 16.4045
    axis -3.48766 0.00143442 -0.000524262 xyz
    dof rx ry rz
  end
  begin
    id 23
    name LeftLeg
    direction -2.30187e-007 -1 1.6669e-009
    length 17.5097
    axis 3.68178 -0.00654042 -0.000285133 xyz
    dof rx ry rz
  end
  begin
    id 24
    name LeftFoot
    direction 8.31532e-007 -4.54478e-011 1
    length 6.49508
    axis 1.87233e-006 4.66016e-005 -8.6538e-006 xyz
    dof rx ry rz
  end
  begin
    id 25
    name LeftToes
    direction 0.00818058 -0.00485161 0.999955
    length 3.85048
    axis 1.06247e-005 4.65869e-005 -8.65513e-006 xyz
    dof rx ry rz
  end
:hierarchy
  begin
    root RightUpLegDummy SpineDummy LeftUpLegDummy
    RightUpLegDummy RightUpLeg
    RightUpLeg RightLeg
    RightLeg RightFoot
    RightFoot RightToes
    SpineDummy Spine
    Spine Spine1
    Spine1 HEadDummy LeftShoulder1Dummy RightShoulderDummy
    HEadDummy HEad
    LeftShoulder1Dummy LeftShoulder1
    LeftShoulder1 LeftArm
    LeftArm LeftForeArm
    LeftForeArm LeftHand
    RightShoulderDummy RightShoulder
    RightShoulder RightArm
    RightArm RightForeArm
    RightForeArm RightHand
    LeftUpLegDummy LeftUpLeg
    LeftUpLeg LeftLeg
    LeftLeg LeftFoot
    LeftFoot LeftToes
  end

:SAMPLES-PER-SECOND 30
:FULLY-SPECIFIED
:DEGREES
143
root  40.3407 33.5529 -65.7663 0.167805 -48.7156 -0.16566
RightUpLeg  -6.51958 0.351496 0.639412
RightLeg  15.9591 -5.67916 -1.23236
RightFoot  0.0371585 -0.0312372 -0.0266253
RightToes  -23.9873 -0.0805447 -0.178947
Spine  4.93304 -2.04223 0.265983
Spine1  9.11985 -3.95746 -0.0792413
HEad  12.7591 -0.0326026 8.43328
LeftShoulder1  0 -2.42657e-020 -4.95415e-022
LeftArm  16.2448 7.1434 -78.6372
LeftForeArm  48.9305 -70.8491 -30.7304
LeftHand  -0.0762268 -0.740323 12.8052
RightShoulder  0 2.42657e-020 1.07489e-018
RightArm  14.0123 -18.6173 65.4146
RightForeArm  151.83 76.6042 131.321
RightHand  -5.05738 15.3442 -35.9461
LeftUpLeg  -5.33214 4.67943 2.89349
LeftLeg  17.8839 -1.12217 -0.286078
LeftFoot  -1.92759 0.0026577 -0.0102439
LeftToes  -13.7181 8.72033e-007 1.17809e-007
144
root  40.3316 33.5528 -65.7678 0.0896162 -48.6419 -0.195161
RightUpLeg  -6.33546 0.363826 0.672726
RightLeg  15.8422 -5.76493 -1.23857
RightFoot  0.0589456 -0.0318922 -0.0264474
RightToes  -24.0077 -0.0800927 -0.178382
Spine  4.93674 -2.0345 0.26826
Spine1  9.12714 -3.94301 -0.0743777
HEad  12.9951 -0.0655162 8.39815
LeftShoulder1  0 -2.42657e-020 -4.95415e-022
LeftArm  16.2662 7.20426 -78.6314
LeftForeArm  48.9337 -70.842 -30.7168
LeftHand  -0.0766551 -0.743044 12.7978
RightShoulder  0 2.42657e-020 1.07489e-018
RightArm  14.0443 -18.6993 65.3891
RightForeArm  151.847 76.5942 131.371
RightHand  -5.06359 15.3394 -35.9986
LeftUpLeg  -5.24825 4.62429 2.93303
LeftLeg  17.9111 -1.14992 -0.293682
LeftFoot  -1.93494 0.00225693 -0.00875715
LeftToes  -13.6873 8.72033e-007 1.17809e-007
145
root  40.3237 33.5526 -65.7704 0.0285845 -48.5181 -0.215092
RightUpLeg  -6.24403 0.177889 0.686463
RightLeg  15.8529 -5.70749 -1.2274
RightFoot  0.00543009 -0.0325467 -0.0261426
RightToes  -23.8785 -0.0796549 -0.177834
Spine  4.9349 -2.03451 0.270254
Spine1  9.14535 -3.94323 -0.0679705
HEad  13.1734 -0.135007 8.38665
LeftShoulder1  0 -2.42657e-020 -4.95415e-022
LeftArm  16.3552 7.19837 -78.6018
LeftForeArm  48.8833 -70.8408 -30.7144
LeftHand  -0.0749438 -0.73311 12.8441
RightShoulder  0 2.42657e-020 1.07489e-018
RightArm  14.0376 -18.7757 65.3714
RightForeArm  151.954 76.5667 131.507
RightHand  -5.05774 15.3109 -36.0232
LeftUpLeg  -5.23965 4.56655 2.96329
LeftLeg  18.0112 -1.22175 -0.314178
LeftFoot  -1.97548 0.00182746 -0.00684248
LeftToes  -13.6761 8.72033e-007 1.17809e-007
146
root  40.3152 33.5527 -65.7709 -0.0025395 -48.4435 -0.221046
RightUpLeg  -6.18768 0.175417 0.70189
RightLeg  15.856 -5.76405 -1.23984
RightFoot  -0.0249161 -0.0331989 -0.0257304
RightToes  -23.8769 -0.079232 -0.177302
Spine  4.92115 -2.03308 0.272025
Spine1  9.12152 -3.94091 -0.0620572
HEad  13.2366 -0.156235 8.32778
LeftShoulder1  0 -2.42657e-020 -4.95415e-022
LeftArm  16.3522 7.27544 -78.6049
LeftForeArm  48.9326 -70.8499 -30.732
LeftHand  -0.0769984 -0.73461 12.7913
RightShoulder  0 2.42657e-020 1.07489e-018
RightArm  14.0976 -18.804 65.3515
RightForeArm  151.849 76.5812 131.435
RightHand  -5.06372 15.2771 -36.1396
LeftUpLeg  -5.2175 4.49923 2.97422
LeftLeg  18.0268 -1.21618 -0.31311
LeftFoot  -1.97374 0.00139107 -0.00483383
LeftToes  -13.7487 8.72033e-007 1.17809e-007
147
root  40.2958 33.553 -65.7668 -0.0918792 -48.2695 -0.278634
RightUpLeg  -5.96645 0.136902 0.759678
RightLeg  15.7883 -5.89632 -1.26088
RightFoot  -0.0359815 -0.0338746 -0.024806
RightToes  -23.8012 -0.0788246 -0.176789
Spine  4.92901 -2.05556 0.282748
Spine1  9.13624 -3.98593 -0.0448284
HEad  13.3994 -0.138732 8.28665
LeftShoulder1  0 -2.42657e-020 -4.95415e-022
LeftArm  16.3515 7.34387 -78.6336
LeftForeArm  48.8749 -70.8142 -30.6633
LeftHand  -0.077414 -0.696717 12.7726
RightShoulder  0 2.42657e-020 1.07489e-018
RightArm  14.1074 -18.8842 65.362
RightForeArm  151.646 76.6186 131.248
RightHand  -5.05977 15.2308 -36.2178
LeftUpLeg  -5.11433 4.33607 3.03228
LeftLeg  18.0792 -1.23456 -0.31902
LeftFoot  -2.00001 0.000969538 -0.00306513
LeftToes  -13.7785 8.72033e-007 1.17809e-007
148
root  40.273 33.5529 -65.7659 -0.213482 -48.1577 -0.306937
RightUpLeg  -5.7638 0.0893055 0.804688
RightLeg  15.758 -5.9605 -1.27124
RightFoot  -0.065885 -0.0347052 -0.0213203
RightToes  -23.7585 -0.0784333 -0.176295
Spine  4.92726 -2.0656 0.288498
Spine1  9.13125 -4.00305 -0.0407618
HEad  13.6181 -0.0555947 8.26962
LeftShoulder1  0 -2.42657e-020 -4.95415e-022
LeftArm  16.3371 7.47035 -78.6326
LeftForeArm  48.8748 -70.8171 -30.6689
LeftHand  -0.0763661 -0.668557 12.7947
RightShoulder  0 2.42657e-020 1.07489e-018
RightArm  14.1436 -19.0108 65.3691
RightForeArm  151.568 76.6188 131.247
RightHand  -5.04906 15.1928 -36.2317
LeftUpLeg  -4.98453 4.25904 3.08706
LeftLeg  18.1228 -1.29629 -0.335919
LeftFoot  -2.01224 0.00058465 -0.00187028
LeftToes  -13.8708 8.72033e-007 1.17809e-007
149
root  40.2546 33.5528 -65.7634 -0.247668 -48.0646 -0.306925
RightUpLeg  -5.69571 -0.0210204 0.812559
RightLeg  15.7685 -5.95417 -1.27104
RightFoot  -0.145448 -0.0358866 -0.0122257
RightToes  -23.6275 -0.0780587 -0.175821
Spine  4.91114 -2.0464 0.281874
Spine1  9.10674 -3.96633 -0.0449869
HEad  13.6506 -0.0538972 8.30557
LeftShoulder1  0 -2.42657e-020 -4.95415e-022
LeftArm  16.4274 7.49266 -78.6023
LeftForeArm  48.8843 -70.8334 -30.7001
LeftHand  -0.0765658 -0.664319 12.7872
RightShoulder  0 2.42657e-020 1.07489e-018
RightArm  14.1433 -19.1122 65.3829
RightForeArm  151.576 76.6107 131.287
RightHand  -4.94785 14.3941 -37.4217
LeftUpLeg  -4.94971 4.14541 3.09828
LeftLeg  18.1381 -1.26488 -0.328194
LeftFoot  -2.02874 0.000281896 -0.00195169
LeftToes  -13.8664 8.72033e-007 1.17809e-007
150
root  40.2332 33.5525 -65.7614 -0.290782 -47.9579 -0.310172
RightUpLeg  -5.61196 -0.0997373 0.832512
RightLeg  15.7801 -5.97184 -1.27607
RightFoot  -0.209895 -0.0369557 -0.00470575
RightToes  -23.5182 -0.0777013 -0.175367
Spine  4.8904 -2.03567 0.271403
Spine1  9.07102 -3.94385 -0.062411
HEad  13.6917 -0.0606935 8.36764
LeftShoulder1  0 -2.42657e-020 -4.95415e-022
LeftArm  16.5081 7.5803 -78.5461
LeftForeArm  48.9781 -70.8709 -30.7725
LeftHand  -0.0753614 -0.620638 12.8066
RightShoulder  0 2.42657e-020 1.07489e-018
RightArm  14.2432 -19.2659 65.3504
RightForeArm  151.752 76.5812 131.435
RightHand  -4.93623 14.3455 -37.4592
LeftUpLeg  -4.90219 4.06399 3.12375
LeftLeg  18.1531 -1.29352 -0.335938
LeftFoot  -2.034 -6.09524e-005 -0.00140532
LeftToes  -13.9215 8.72033e-007 1.17809e-007
151
root  40.2054 33.5521 -65.7526 -0.387412 -47.8239 -0.342327
RightUpLeg  -5.37969 -0.0956376 0.879536
RightLeg  15.6871 -6.09693 -1.29233
RightFoot  -0.201743 -0.0375157 -0.0049155
RightToes  -23.5421 -0.0773618 -0.174935
Spine  4.88244 -2.03295 0.263062
Spine1  9.05507 -3.93244 -0.0880466
HEad  13.8435 -0.102199 8.39188
LeftShoulder1  0 -2.42657e-020 -4.95415e-022
LeftArm  16.5837 7.70762 -78.4681
LeftForeArm  49.0576 -70.8999 -30.8287
LeftHand  -0.075775 -0.645465 12.7961
RightShoulder  0 2.42657e-020 1.07489e-018
RightArm  14.4073 -19.5147 65.2589
RightForeArm  152.154 76.505 131.811
RightHand  -4.93866 14.3596 -37.4416
LeftUpLeg  -4.77662 3.9398 3.17043
LeftLeg  18.1835 -1.30303 -0.339131
LeftFoot  -2.05164 -0.000417547 -0.000636051
LeftToes  -13.9486 8.72033e-007 1.17809e-007
152
root  40.1858 33.5517 -65.7457 -0.439118 -47.733 -0.350123
RightUpLeg  -5.29434 -0.187295 0.893434
RightLeg  15.7204 -6.10662 -1.29808
RightFoot  -0.286401 -0.038699 0.00473484
RightToes  -23.3552 -0.0770407 -0.174524
Spine  4.86606 -2.02582 0.261298
Spine1  9.03052 -3.92271 -0.0790323
HEad  13.8115 -0.119509 8.38557
LeftShoulder1  0 -2.42657e-020 -4.95415e-022
LeftArm  16.6931 7.7791 -78.4003
LeftForeArm  49.1363 -70.9447 -30.9157
LeftHand  -0.0740662 -0.603624 12.8262
RightShoulder  0 2.42657e-020 1.07489e-018
RightArm  14.5299 -19.5416 65.2016
RightForeArm  152.126 76.5007 131.832
RightHand  -4.89532 14.2342 -37.443
LeftUpLeg  -4.70224 3.81195 3.18598
LeftLeg  18.1829 -1.25994 -0.327975
LeftFoot  -2.08097 -0.000784202 0.000303382
LeftToes  -13.9315 8.72033e-007 1.17809e-007
153
root  40.1674 33.5512 -65.737 -0.486729 -47.6004 -0.374009
RightUpLeg  -5.1498 -0.296638 0.91296
RightLeg  15.6636 -6.12734 -1.29612
RightFoot  -0.310888 -0.0394306 0.00755992
RightToes  -23.3007 -0.0767386 -0.174137
Spine  4.84232 -2.02178 0.262542
Spine1  8.98643 -3.91694 -0.0700731
HEad  13.8156 -0.146707 8.38342
LeftShoulder1  0 -2.42657e-020 -4.95415e-022
LeftArm  16.81 7.8814 -78.3481
LeftForeArm  49.2065 -70.971 -30.9672
LeftHand  -0.0716547 -0.612988 12.885
RightShoulder  0 2.42657e-020 1.07489e-018
RightArm  14.6849 -19.6373 65.0747
RightForeArm  152.18 76.4632 132.014
RightHand  -4.89674 14.2348 -37.4518
LeftUpLeg  -4.66008 3.74122 3.21083
LeftLeg  18.2375 -1.3198 -0.344803
LeftFoot  -2.13123 -0.00115723 0.00136023
LeftToes  -13.8256 8.72033e-007 1.17809e-007
154
root  40.1475 33.5507 -65.7271 -0.526092 -47.5188 -0.391761
RightUpLeg  -5.04907 -0.311934 0.935423
RightLeg  15.6639 -6.18715 -1.30875
RightFoot  -0.356946 -0.0403318 0.0132135
RightToes  -23.2104 -0.0764561 -0.173773
Spine  4.8273 -2.00645 0.267608
Spine1  8.95946 -3.88616 -0.0585262
HEad  13.821 -0.1081 8.36369
LeftShoulder1  0 -2.42657e-020 -4.95415e-022
LeftArm  16.8841 7.94673 -78.3408
LeftForeArm  49.2074 -70.9881 -31.0006
LeftHand  -0.0698288 -0.570498 12.9157
RightShoulder  0 2.42657e-020 1.07489e-018
RightArm  14.7472 -19.763 65.0118
RightForeArm  152.341 76.4302 132.173
RightHand  -4.87676 14.1757 -37.4556
LeftUpLeg  -4.59709 3.60354 3.22561
LeftLeg  18.2597 -1.26083 -0.330019
LeftFoot  -2.15364 -0.00153294 0.00248173
LeftToes  -13.9163 8.72033e-007 1.17809e-007
155
root  40.1188 33.5502 -65.7135 -0.66646 -47.3876 -0.431343
RightUpLeg  -4.78845 -0.309663 0.982619
RightLeg  15.6177 -6.32043 -1.33148
RightFoot  -0.412295 -0.0412853 0.0198813
RightToes  -23.0758 -0.0761939 -0.173433
Spine  4.85376 -2.0065 0.273352
Spine1  9.01028 -3.88765 -0.0465156
HEad  13.8463 -0.0747363 8.37673
LeftShoulder1  0 -2.42657e-020 -4.95415e-022
LeftArm  16.8853 8.00447 -78.3583
LeftForeArm  49.2506 -70.9785 -30.9773
LeftHand  -0.0708889 -0.560397 12.8761
RightShoulder  0 2.42657e-020 1.07489e-018
RightArm  14.7852 -19.807 64.9432
RightForeArm  152.329 76.4369 132.141
RightHand  -4.98133 14.768 -36.7533
LeftUpLeg  -4.39732 3.48899 3.27527
LeftLeg  18.2532 -1.29369 -0.338404
LeftFoot  -2.16982 -0.00190764 0.00361515
LeftToes  -13.936 8.72033e-007 1.17809e-007
156
root  40.1049 33.5497 -65.7071 -0.710739 -47.3139 -0.424524
RightUpLeg  -4.74642 -0.369598 0.982325
RightLeg  15.6803 -6.33762 -1.34232
RightFoot  -0.462429 -0.042198 0.0261239
RightToes  -23.0966 -0.0759524 -0.173118
Spine  4.84341 -2.00574 0.27534
Spine1  8.99314 -3.87689 -0.0445433
HEad  13.8849 -0.0900248 8.28906
LeftShoulder1  0 -2.42657e-020 -4.95415e-022
LeftArm  16.941 8.03611 -78.358
LeftForeArm  49.219 -70.9679 -30.961
LeftHand  -0.0684065 -0.546985 12.9293
RightShoulder  0 2.42657e-020 1.07489e-018
RightArm  14.9022 -19.8184 64.8566
RightForeArm  152.299 76.4332 132.159
RightHand  -4.93181 14.2711 -37.6126
LeftUpLeg  -4.36389 3.39107 3.274
LeftLeg  18.2838 -1.27249 -0.333625
LeftFoot  -2.19531 -0.00227766 0.00470772
LeftToes  -13.9698 8.72033e-007 1.17809e-007
157
root  40.0943 33.5492 -65.699 -0.74783 -47.2318 -0.422211
RightUpLeg  -4.68708 -0.42206 0.980078
RightLeg  15.7004 -6.36885 -1.35123
RightFoot  -0.504609 -0.0430194 0.0311637
RightToes  -23.0063 -0.0757324 -0.17283
Spine  4.82073 -2.0042 0.277084
Spine1  8.95041 -3.88261 -0.0334696
HEad  13.9203 -0.0729775 8.32914
LeftShoulder1  0 -2.42657e-020 -4.95415e-022
LeftArm  17.0097 8.08764 -78.3405
LeftForeArm  49.1655 -70.9741 -30.9732
LeftHand  -0.0681932 -0.546004 12.9247
RightShoulder  0 2.42657e-020 1.07489e-018
RightArm  14.9797 -19.8423 64.7767
RightForeArm  152.13 76.4522 132.067
RightHand  -4.95166 14.3244 -37.6217
LeftUpLeg  -4.33403 3.3992 3.2766
LeftLeg  18.3071 -1.31545 -0.345388
LeftFoot  -2.21426 -0.00263929 0.00570671
LeftToes  -13.9314 8.72033e-007 1.17809e-007
